<?xml version="1.0" encoding="utf-8"?>
<!-- Generator: Adobe Illustrator 23.0.3, SVG Export Plug-In . SVG Version: 6.00 Build 0)  -->
<svg version="1.1" id="Capa_1" xmlns="http://www.w3.org/2000/svg" xmlns:xlink="http://www.w3.org/1999/xlink" x="0px" y="0px"
	 viewBox="0 0 900 650" style="enable-background:new 0 0 900 650;" xml:space="preserve">
<style type="text/css">
	.st0{fill:#FFFFFF;stroke:#FFFFFF;stroke-miterlimit:10;}
</style>
<path class="st0" d="M663.9,105.34C633.94,58.11,579.3,33.7,528.26,23.4c-50.17-10.12-107.85-9.29-154.47,15.17
	c-2.1,1.1-4.12,0.76-5.66-0.32c-16.19,7.02-31.63,15.83-45.82,26.87c-20.82,16.18-38.17,36.99-51.95,60.03
	c-28.88,48.27-43.69,106.24-45.08,163.16c-0.7,28.57,2.1,57.24,10.18,84.58c7.12,24.11,17.51,46.98,30.38,68.24
	c48.23,79.66,127.13,133.32,207.13,173c-1.75-4.24-3.49-8.49-5.23-12.73c-17.43-42.68-34.41-87.16-35.92-134.26
	c-0.65-20.39,1.35-41.2,9.65-59.82c6.73-15.1,17.39-27.96,29.72-38.24c25.4-21.19,56.68-32.78,87.25-42.71
	c31.3-10.17,61.82-23.98,86.09-47.89c24.14-23.78,38.57-55.62,40.06-90.6C685.84,158.48,679.46,129.86,663.9,105.34z M488.92,126.84
	c-18.29-4.74-25.59-28.13-11.54-41.72c7.17-6.93,17.88-9.55,27.43-10.97c8.43-1.26,16.9-1.99,25.42-2.01c1.7,0,3.23,0.23,4.63,0.65
	c2.82,0.03,5.6,0.35,8.25,1.1c9.78,2.79,15.86,12.48,12.75,22.46c-3.56,11.43-16.8,18.64-26.97,23.23
	C516.81,125.02,502.3,130.3,488.92,126.84z M584.91,213.82c-6.81,10.55-19.43,17.05-30.72,21.53c-11.05,4.38-25.05,6.86-35.76,0.23
	c-16.56-10.26-14.95-35.11,1.25-44.69c12.21-7.23,27.99-8.01,42.23-8.1c0.07,0,0.13-0.01,0.19-0.01c0.72-0.01,1.43-0.01,2.15,0
	c0.92,0,1.84,0,2.75,0c2.04,0,3.85,0.35,5.46,0.95c4.74,1.11,9.1,3.33,12.28,7.41C590.04,197.93,589.44,206.8,584.91,213.82z"/>
</svg>
