<?xml version="1.0" encoding="utf-8"?>
<!-- Generator: Adobe Illustrator 23.0.3, SVG Export Plug-In . SVG Version: 6.00 Build 0)  -->
<svg version="1.1" id="Capa_1" xmlns="http://www.w3.org/2000/svg" xmlns:xlink="http://www.w3.org/1999/xlink" x="0px" y="0px"
	 viewBox="0 0 900 650" style="enable-background:new 0 0 900 650;" xml:space="preserve">
<style type="text/css">
	.st0{fill:#ED1C24;}
</style>
<path class="st0" d="M488.05,270.4c3.87-4.7,6.63-10.5,6.36-16.35c-0.31-6.55-4.53-12.12-9.76-16.58c-1.29-0.07-2.61-0.55-3.86-1.58
	c-10.92-9.04-28.47,1.5-34.57,10.83c-6.99,10.7-3.57,22.52,6.01,30.54c0.92,0.21,1.85,0.62,2.74,1.3
	C466.41,287.19,480.24,279.87,488.05,270.4z M469.22,262.82c-1.8,0.2-3.8-0.28-5.21-1.27c-1.62-1.13-2.75-2.67-2.97-4.52
	c-0.23-1.86,0.5-3.6,1.8-5.06c1.2-1.35,2.9-2.11,4.76-2.39c1.87-0.28,3.73,0.33,5.21,1.27c1.43,0.9,2.42,2.65,2.61,4.18
	c0.02,0.19,0,0.38,0,0.57c0.23,1.64-0.25,3.38-1.43,4.83C472.93,261.71,470.95,262.63,469.22,262.82z"/>
<path class="st0" d="M481.16,212.32c-0.77-0.21-1.42-0.5-1.97-0.84c-21.19-2.89-44.31,8.89-55.81,25.09
	c-29.12,41.03,34.98,86.87,77.88,62.35C538.97,277.37,518.11,222.5,481.16,212.32z M446.86,289.05c-1.03-0.19-2.07-0.65-3.06-1.45
	c-15.71-12.69-20.64-31.83-8.7-48.56c9.25-12.96,31.2-23.85,47.77-17.17c1.54-0.14,3.17,0.2,4.73,1.22
	c10.64,6.95,19.96,17.15,20.91,29.36c0.71,9.19-3.31,18.25-9.41,25.64C486.9,292.91,464.09,301.3,446.86,289.05z"/>
<path class="st0" d="M420.04,220.1c11.89-11.39,28.36-19.11,45.25-20.94c-12.12-4.27-24.81-7.27-37.85-8.62
	c-16.62-1.73-36.83-1.71-52.99,4.75c-0.09,0.33-0.19,0.66-0.35,1c-6.3,14.2,2.36,32.25,8.64,45.09
	c5.96,12.18,13.59,24.05,22.72,34.92C398.03,257.23,403.27,236.16,420.04,220.1z"/>
<path class="st0" d="M558.63,287.4c-5.27-17.39-15.25-33.32-28.3-47.02c2.65,6.65,4.22,13.61,4.57,20.53
	c1.23,24.93-14.19,47.72-42.12,54.92c-12.17,3.14-24.86,3.03-36.78,0.31c0.21,0.1,0.41,0.2,0.62,0.3
	c30.6,14.52,66.26,25.74,100.35,12.27c1.48-0.59,2.86-0.7,4.07-0.48C563.36,314.63,562.67,300.73,558.63,287.4z"/>
<path class="st0" d="M487.62,142.14c-19.24,9.64-36.1,23.31-52.29,36.64c13.79,1.91,27.27,5.45,40.11,10.37
	C478.28,173.32,486.22,158.04,487.62,142.14z"/>
<path class="st0" d="M572.83,244.53c4.57-10.13,10.59-20.35,14.3-30.94c-14.98,6.08-29.03,14-44.07,20.01
	c-0.26,0.11-0.52,0.2-0.78,0.27c9.11,9.92,16.7,20.8,22.38,32.36C566.55,258.72,569.76,251.34,572.83,244.53z"/>
<path class="st0" d="M463.96,29.82L188.67,336.52l272.97,191.12l275.29-306.71L463.96,29.82z M478.57,397.06
	c-34.46-6.95-65.47-24.07-92.33-43.74c-27.24-19.96-52.21-43.86-69.54-71.36c-4.37-6.93,7.1-14.56,11.51-7.55
	c16.42,26.05,39.61,48.66,65.27,67.74c25.17,18.72,54.59,35.86,87.18,42.43C489.48,386.35,487.43,398.84,478.57,397.06z
	 M355.05,254.31c28.5,49.32,81.36,89.44,140.98,106.43c8.67,2.47,2.94,14.09-5.63,11.64c-63.39-18.07-118.41-61.12-148.61-113.37
	C337.66,251.86,350.95,247.21,355.05,254.31z M657.27,274.25c-26.29,11.23-53.48,26.46-82.91,20.69c3.57,18.9,1.97,38.84-6.28,58.84
	c-3.17,7.68-16.17,2.82-13.03-4.79c0.95-2.31,1.81-4.64,2.58-6.99c-8.59,2.94-17.42,4.65-26.33,5.25
	c5.41,28.31-19.55,57.18-35.09,80.21c-4.72,6.99-15.71-0.8-11.06-7.71c7.99-11.83,16.58-23.35,23.26-35.82
	c5.93-11.07,11.85-24.4,8.42-36.65c-6.78-0.41-13.55-1.41-20.25-2.96c-42.45-9.82-79.26-32.13-104.95-63.43
	c-9.92-12.08-18.08-25.46-24.32-39.42c-0.01,0-0.02,0-0.04,0c-17.52-0.66-33.3,6.31-47.99,14.49c-14.37,8-28.04,17.71-37.58,30.31
	c-5.14,6.79-16.15-0.97-11.06-7.71c10.99-14.53,27.4-25.93,44.2-34.78c15.25-8.03,30.28-13.99,47.48-14.77
	c-2.58-7.45-4.48-15.35-4.32-23.13c-0.7,0.71-1.38,1.44-2.03,2.21c-1.18,1.4-2.61,2.14-4.08,2.39c-2.96,2.38-5.79,4.86-8.35,7.64
	c-5.83,6.33-16.89-1.37-11.06-7.71c4.68-5.08,10.23-9.43,15.84-13.69c14.2-13.84,35.63-18.96,56.79-19.66
	c-6.84-25.75,1.87-55.32,21.26-75.6c5.96-6.23,17.02,1.47,11.06,7.71c-16.93,17.71-24.96,44.06-18.07,66.47
	c0.4-0.75,0.98-1.47,1.78-2.12c21.65-17.77,43.95-36.37,70.98-47.44c4.15-1.7,9.19,1.17,9.58,5.04
	c2.22,22.07-10.48,42.17-12.89,63.73c15.86,7.55,30.4,17.27,42.91,28.57c1.03-0.37,2.15-0.49,3.29-0.34
	c0.47-0.17,0.96-0.28,1.46-0.35c0.45-0.31,0.94-0.6,1.53-0.83c19.11-7.63,36.62-18.36,56.48-24.48c5.05-1.55,10.28,1.81,9.55,6.65
	c-2.15,14.17-9.92,27.53-16.06,40.64c-5.47,11.68-12.3,25.13-10.36,38c25.95,5.42,51.93-10.48,74.6-20.16
	C660.5,259.03,665.52,270.72,657.27,274.25z"/>
<polygon class="st0" points="191.42,418.63 180.6,417.7 191.72,331.48 202.54,332.4 "/>
<polygon class="st0" points="452.32,601 448.37,605.4 180.64,417.95 184.59,413.55 "/>
<polygon class="st0" points="717.85,297.57 722.66,300.93 448.99,605.83 444.18,602.46 "/>
<g>
	<g>
		<path class="st0" d="M228.61,427.31c51.19,39.04,104.72,74.93,160.19,107.59c1.67,0.98,3.18-1.61,1.51-2.59
			c-55.47-32.67-109-68.56-160.19-107.59C228.59,423.55,227.09,426.16,228.61,427.31L228.61,427.31z"/>
	</g>
</g>
<g>
	<g>
		<path class="st0" d="M226.07,396.18c35.36,24.93,71.28,49.04,107.73,72.34c1.63,1.04,3.14-1.55,1.51-2.59
			c-36.45-23.3-72.38-47.42-107.73-72.34C226,392.47,224.5,395.07,226.07,396.18L226.07,396.18z"/>
	</g>
</g>
<g>
	<g>
		<path class="st0" d="M459.24,520.95c-1.3,15.85-4.41,31.4-9.25,46.55c-3.27,10.22-6.45,21.94,3.38,29.54
			c1.53,1.18,3.02-1.43,1.51-2.59c-11.39-8.79-1.59-26.44,1.25-37.25c3.12-11.88,5.11-24,6.11-36.24
			C462.4,519.02,459.4,519.03,459.24,520.95L459.24,520.95z"/>
	</g>
</g>
<g>
	<g>
		<path class="st0" d="M479.17,528.93c38.05-37.59,74.83-76.45,110.25-116.52c1.27-1.44-0.84-3.57-2.12-2.12
			c-35.42,40.07-72.21,78.93-110.25,116.52C475.67,528.17,477.79,530.29,479.17,528.93L479.17,528.93z"/>
	</g>
</g>
<g>
	<g>
		<path class="st0" d="M638.15,354.56c19.3-20.98,39.4-41.2,60.24-60.65c1.41-1.32-0.71-3.44-2.12-2.12
			c-20.84,19.45-40.94,39.67-60.24,60.65C634.72,353.85,636.84,355.98,638.15,354.56L638.15,354.56z"/>
	</g>
</g>
<g>
	<g>
		<path class="st0" d="M474.59,551.2c13.43-13.39,26.26-27.34,38.44-41.87c1.23-1.47-0.88-3.6-2.12-2.12
			c-12.19,14.53-25.01,28.48-38.44,41.87C471.1,550.44,473.22,552.56,474.59,551.2L474.59,551.2z"/>
	</g>
</g>
<g>
	<g>
		<path class="st0" d="M717.72,304.63c3.7-28.99,7.4-57.99,11.1-86.98c0.24-1.91-2.76-1.89-3,0c-3.7,28.99-7.4,57.99-11.1,86.98
			C714.48,306.54,717.48,306.52,717.72,304.63L717.72,304.63z"/>
	</g>
</g>
</svg>
