<?xml version="1.0" encoding="utf-8"?>
<!-- Generator: Adobe Illustrator 23.0.3, SVG Export Plug-In . SVG Version: 6.00 Build 0)  -->
<svg version="1.1" xmlns="http://www.w3.org/2000/svg" xmlns:xlink="http://www.w3.org/1999/xlink" x="0px" y="0px"
	 viewBox="0 0 900 650" style="enable-background:new 0 0 900 650;" xml:space="preserve">
<style type="text/css">
	.st0{fill:#662DC4;}
</style>
<g id="Capa_2">
	<path class="st0" d="M381,498.42c-10.84,1.85-15.56,19.71-16.32,30.6c-0.77,11.02,1.29,23.04,8.45,30.66
		c0.03-3.24-0.66-7.11-0.36-9.73c0.36-3.21,1.14-6.25,2.31-9.19c2.63-6.61,7.04-11.7,12.21-15.72
		C386.56,515.76,384.46,507.06,381,498.42z"/>
	<path class="st0" d="M528.03,498.42c10.84,1.85,15.56,19.71,16.32,30.6c0.77,11.02-1.29,23.04-8.45,30.66
		c-0.03-3.24,0.66-7.11,0.36-9.73c-0.36-3.21-1.14-6.25-2.31-9.19c-2.63-6.61-7.04-11.7-12.21-15.72
		C522.47,515.76,524.57,507.06,528.03,498.42z"/>
	<g>
		<g>
			<path class="st0" d="M357.18,193.04c-11.82-12.5-6.7-32.87-0.64-46.89c7.04-16.29,17.37-30.81,27.29-45.42
				c18.83-27.74,37.01-60.43,28.62-95.12c-0.45-1.88-3.35-1.08-2.89,0.8c9.45,39.03-15.45,73.56-36,104.11
				c-9.58,14.24-19.39,29.41-23.98,46.13c-3.5,12.74-4.21,28.26,5.48,38.51C356.39,196.56,358.5,194.44,357.18,193.04L357.18,193.04
				z"/>
		</g>
	</g>
	<g>
		<g>
			<path class="st0" d="M538.21,95.93c-5.76-10.53-15.85-16.45-25.07-23.56c-12-9.26-19.25-22.06-20.77-37.21
				c-0.19-1.9-3.19-1.92-3,0c1.34,13.39,6.82,26.16,16.85,35.34c9.9,9.06,22.73,14.74,29.4,26.94
				C536.54,99.14,539.13,97.63,538.21,95.93L538.21,95.93z"/>
		</g>
	</g>
	<g>
		<g>
			<path class="st0" d="M500.31,479.12c-3.22-18.46,7.31-34.88,16.85-49.73c9.15-14.24,16.99-28.87,22.41-44.95
				c5.63-16.7,8.89-34.21,9.72-51.81c0.88-18.56-1.26-37.05-3.88-55.38c-3.2-22.35-7.03-44.65-7.12-67.29c-0.01-1.93-3.01-1.93-3,0
				c0.15,39.45,11.93,77.91,11.18,117.4c-0.35,18.54-3.48,37.01-9.24,54.64c-5.66,17.32-14.23,32.7-23.99,47.97
				c-9.63,15.06-19.04,31.44-15.81,49.96C497.75,481.81,500.64,481.01,500.31,479.12L500.31,479.12z"/>
		</g>
	</g>
	<g>
		<g>
			<path class="st0" d="M365.83,265.64c18.69,25.18,11.54,59.15,7.8,87.76c-4,30.58-1.33,60.48,13.08,88.17
				c0.89,1.71,3.48,0.2,2.59-1.51c-7.52-14.45-12.29-30.24-13.99-46.44c-1.74-16.59,0.28-32.98,2.58-49.41
				c3.7-26.4,7.53-57.17-9.47-80.08C367.28,262.6,364.68,264.09,365.83,265.64L365.83,265.64z"/>
		</g>
	</g>
</g>
<g id="Capa_1">
	<path class="st0" d="M474.54,114.4c-7.42-10.87-14.83-21.75-22.07-32.78c-5.94-9.06-11.95-18.19-17.05-27.91
		c-0.01-0.02-0.02-0.04-0.03-0.06h-1.14v429.97h40.33V114.45C474.56,114.43,474.55,114.42,474.54,114.4z"/>
	<path class="st0" d="M468.46,567.82h-28.09c-8.62,0-15.61-6.99-15.61-15.61v-10.22c0-8.62,6.99-15.61,15.61-15.61h28.09
		c8.62,0,15.61,6.99,15.61,15.61v10.22C484.06,560.83,477.08,567.82,468.46,567.82z"/>
	<path class="st0" d="M473.55,586.3h-39.43c-3.46,0-6.27-2.81-6.27-6.27v-5.95c0-3.46,2.81-6.27,6.27-6.27h39.43
		c3.46,0,6.27,2.81,6.27,6.27v5.95C479.82,583.49,477.01,586.3,473.55,586.3z"/>
	<path class="st0" d="M473.55,604.78h-39.43c-3.46,0-6.27-2.81-6.27-6.27v-5.95c0-3.46,2.81-6.27,6.27-6.27h39.43
		c3.46,0,6.27,2.81,6.27,6.27v5.95C479.82,601.98,477.01,604.78,473.55,604.78z"/>
	<path class="st0" d="M468.46,645h-28.09c-8.62,0-15.61-6.99-15.61-15.61v-10.22c0-8.62,6.99-15.61,15.61-15.61h28.09
		c8.62,0,15.61,6.99,15.61,15.61v10.22C484.06,638.01,477.08,645,468.46,645z"/>
	<rect x="380.48" y="498.55" class="st0" width="147.86" height="29.88"/>
</g>
</svg>
