<?xml version="1.0" encoding="utf-8"?>
<!-- Generator: Adobe Illustrator 23.0.3, SVG Export Plug-In . SVG Version: 6.00 Build 0)  -->
<svg version="1.1" xmlns="http://www.w3.org/2000/svg" xmlns:xlink="http://www.w3.org/1999/xlink" x="0px" y="0px"
	 viewBox="0 0 900 650" style="enable-background:new 0 0 900 650;" xml:space="preserve">
<style type="text/css">
	.st0{fill:#009245;stroke:#009245;stroke-miterlimit:10;}
</style>
<g id="Capa_2">
	<path class="st0" d="M261.35,290.86c2.5-3.69,5.12-7.3,7.83-10.84c-1.64-2.1-3.23-4.25-4.75-6.46
		c-19.04-27.55-28.03-61.22-31.76-94.15c-3.62-32.05-1.98-65.29,6.13-96.57c2.17-8.39,13.94-7.8,16.39,0
		c9.91,31.65,27.22,60.92,52.48,82.67c12.3,10.59,26.52,19.01,41.61,24.91c9.47,3.71,19.33,6.61,28.94,10.07
		c10.33-3.28,20.95-5.52,31.71-6.38c-0.65-0.66-1.3-1.31-1.97-1.95c-8.8-8.41-18.67-15.45-28.84-22.08
		c-29.33-19.12-57.88-40.8-83.11-65.11c-21.65-20.85-44.6-46.81-50.84-77.24c-4.44,4.64-7.59,10.7-10.25,16.35
		c-5.32,11.3-8.85,23.47-11.92,35.55c-4.81,18.92-8.03,38.17-11.46,57.37c-4.41,24.66-5.9,50.06-3.71,75.04
		c2.18,24.78,8.47,49.6,20.72,71.37c5.76,10.25,12.78,19.48,20.86,27.65C252.95,304.07,256.96,297.32,261.35,290.86z"/>
	<path class="st0" d="M354.16,210.15c-4.78-1.61-9.52-3.29-14.14-5.21c-16.7-6.94-32-16.51-45.6-28.46
		c-19.08-16.77-33.84-37.78-44.59-60.7c-0.81,6.6-1.37,13.23-1.66,19.9c-1.87,42.61,5.12,95.06,31.91,131.13
		c15.62-17.6,33.84-32.96,53.73-45.38C340.34,217.35,347.15,213.55,354.16,210.15z"/>
	<path class="st0" d="M638.65,290.86c-2.5-3.69-5.12-7.3-7.83-10.84c1.64-2.1,3.23-4.25,4.75-6.46
		c19.04-27.55,28.03-61.22,31.76-94.15c3.62-32.05,1.98-65.29-6.13-96.57c-2.17-8.39-13.94-7.8-16.39,0
		c-9.91,31.65-27.22,60.92-52.48,82.67c-12.3,10.59-26.52,19.01-41.61,24.91c-9.47,3.71-19.33,6.61-28.94,10.07
		c-10.33-3.28-20.95-5.52-31.71-6.38c0.65-0.66,1.3-1.31,1.97-1.95c8.8-8.41,18.67-15.45,28.84-22.08
		c29.33-19.12,57.88-40.8,83.11-65.11c21.65-20.85,44.6-46.81,50.84-77.24c4.44,4.64,7.59,10.7,10.25,16.35
		c5.32,11.3,8.85,23.47,11.92,35.55c4.81,18.92,8.03,38.17,11.46,57.37c4.41,24.66,5.9,50.06,3.71,75.04
		c-2.18,24.78-8.47,49.6-20.72,71.37c-5.76,10.25-12.78,19.48-20.86,27.65C647.05,304.07,643.04,297.32,638.65,290.86z"/>
	<path class="st0" d="M545.84,210.15c4.78-1.61,9.52-3.29,14.14-5.21c16.7-6.94,32-16.51,45.6-28.46
		c19.08-16.77,33.84-37.78,44.59-60.7c0.81,6.6,1.37,13.23,1.66,19.9c1.87,42.61-5.12,95.06-31.91,131.13
		c-15.62-17.6-33.84-32.96-53.73-45.38C559.66,217.35,552.85,213.55,545.84,210.15z"/>
</g>
<g id="Capa_1">
	<path class="st0" d="M541.73,406.47c-32.42,8.09-70.98-1.65-86.6-33.6c-0.19-0.39-0.35-0.78-0.49-1.17
		c-1.34-1.19-2.25-2.74-2.74-4.43c-1.08,1.52-2.17,3.03-3.22,4.57c1.02,1.53,1.87,3.22,2.53,5.01c7.46,20.51,23.45,35.5,41.78,41.46
		c32.39,10.52,71.8-1.37,88.39-32.48c0.58-1.09,1.13-2.26,1.66-3.47C572.44,394.46,557.19,402.61,541.73,406.47z"/>
	<path class="st0" d="M549.52,267.5c3.79-3.36,8.27-3.26,11.78-1.38c-3.41-6.05-6.96-12.03-10.54-17.97
		c-24.43,33.67-54.08,62.86-80.34,94.93C499.58,321.09,522.27,291.69,549.52,267.5z"/>
	<path class="st0" d="M448.67,206.21c-114.65,0-207.6,93.14-207.6,208.03s92.94,208.03,207.6,208.03s207.6-93.14,207.6-208.03
		S563.32,206.21,448.67,206.21z M432.78,368.02c-1.54,5.79-4.47,11.08-8.65,15.38c-1.31,1.35-2.9,2.2-4.57,2.62
		c-7.38,7.77-18.21,12.4-28.82,14.47c-32.6,6.36-71.27,0.08-90.06-30.16c-22.36-35.97-4.13-87.56,32.76-105.63
		c3.46-1.69,6.78-1.36,9.47,0.1c2.69,0.62,5.14,2.36,6.89,4.77c23.28,32.07,54.87,57.1,80.36,87.3c1.88,2.23,2.93,4.97,2.89,7.68
		C433.16,365.71,433.09,366.89,432.78,368.02z M583.26,382.11c-4.27,4.93-9.32,9.2-14.84,12.81c-7.51,6.2-16.5,10.59-26.07,12.73
		c-6.61,1.48-13.19,1.94-19.55,1.48c-27.31,0.95-55.02-10.36-67.68-36.25c-0.19-0.39-0.35-0.78-0.49-1.17
		c-3.51-3.11-4.07-8.64-1.92-12.77c2.41-4.63,6.66-8.05,10.89-10.91c9.22-6.34,17.74-13.48,25.91-21.02
		c16.94-19.01,35.36-36.81,48.77-58.65c3.28-5.34,10.23-6.4,14.86-3.02c3.2-1.11,6.51-0.37,9.12,1.37c1.07,0.49,2.06,1.15,2.88,2
		c1.89,1.96,3.64,4.11,5.19,6.41c16.42,13.74,26.06,34.83,28.41,56C600.83,349.92,595.65,367.81,583.26,382.11z"/>
</g>
</svg>
