<?xml version="1.0" encoding="utf-8"?>
<!-- Generator: Adobe Illustrator 23.0.3, SVG Export Plug-In . SVG Version: 6.00 Build 0)  -->
<svg version="1.1" id="Capa_1" xmlns="http://www.w3.org/2000/svg" xmlns:xlink="http://www.w3.org/1999/xlink" x="0px" y="0px"
	 viewBox="0 0 900 650" style="enable-background:new 0 0 900 650;" xml:space="preserve">
<style type="text/css">
	.st0{fill:#0071BC;stroke:#0071BC;stroke-miterlimit:10;}
</style>
<path class="st0" d="M699.86,107.35l-53.98,35.58l20.43,30.99c4.11,6.24-6.3,13.09-10.41,6.86l-20.43-30.99l-16.69,11l9.96,15.12
	c4.11,6.24-6.3,13.09-10.41,6.86l-9.96-15.12L595.69,176l8.73,13.25c4.11,6.24-6.3,13.09-10.41,6.86l-8.73-13.25l-11.67,7.69
	l9.35,14.18c4.11,6.24-6.3,13.09-10.41,6.86l-9.35-14.18l-16.69,11l8.12,12.32c4.11,6.24-6.3,13.09-10.41,6.86l-8.12-12.32
	l-21.71,14.31l19.19,29.12c4.11,6.24-6.3,13.09-10.41,6.86l-19.19-29.12l-15.69,10.34l10.58,16.05c4.11,6.24-6.3,13.09-10.41,6.86
	l-10.58-16.05l-17.35,11.43c2.82,4.91,5.88,9.67,9,14.41c4.11,6.24-6.3,13.09-10.41,6.86c-3.12-4.74-6.18-9.5-9-14.41l-12.02,7.92
	l11.19,16.99c4.11,6.24-6.3,13.09-10.41,6.86l-11.19-16.99l-16.69,11l12.43,18.85c4.11,6.24-6.3,13.09-10.41,6.86l-12.43-18.85
	l-24.72,16.29l19.19,29.12c4.11,6.24-6.3,13.09-10.41,6.86l-19.19-29.12l-36.16,23.83c-9.44,6.22-12.4,18.38-6.61,27.17l30.23,45.87
	c5.79,8.78,18.13,10.86,27.57,4.64l370.53-244.2c9.44-6.22,12.4-18.38,6.61-27.17l-30.23-45.87
	C721.64,103.21,709.29,101.13,699.86,107.35z"/>
<rect x="279.44" y="396.33" transform="matrix(0.835 -0.5503 0.5503 0.835 -181.545 238.5726)" class="st0" width="55.11" height="51.27"/>
<path class="st0" d="M104.99,553.23c-5.96,7.07-12.22,14.09-18.67,21.05l201.71-132.94l-4.02-6.1L104.99,553.23z"/>
<path class="st0" d="M785.95,214.81l-3.77,2.49c-4.22,2.78-9.91,1.62-12.69-2.61L679.87,78.71c-2.78-4.22-1.62-9.91,2.61-12.69
	l3.77-2.49c4.22-2.78,9.91-1.62,12.69,2.61l89.62,135.98C791.34,206.34,790.17,212.02,785.95,214.81z"/>
<path class="st0" d="M797.77,127.36l-65.65,43.27c-10.19,6.72-23.9,3.9-30.62-6.29l-3.89-5.9c-6.72-10.19-3.9-23.9,6.29-30.62
	l65.65-43.27c10.19-6.72,23.9-3.9,30.62,6.29l3.89,5.9C810.78,106.93,807.97,120.64,797.77,127.36z"/>
<path class="st0" d="M825.55,145.99l-3.77,2.49c-4.22,2.78-9.91,1.62-12.69-2.61l-52.08-79.02c-2.78-4.22-1.62-9.91,2.61-12.69
	l3.77-2.49c4.22-2.78,9.91-1.62,12.69,2.61l52.08,79.02C830.94,137.52,829.78,143.2,825.55,145.99z"/>
</svg>
